/* XPM */
static char *red_block[] = {
/* columns rows colors chars-per-pixel */
"10 10 2 1 ",
"  c None",
". c #FF0000",
/* pixels */
"          ",
" ........ ",
" ........ ",
" ........ ",
" ........ ",
" ........ ",
" ........ ",
" ........ ",
" ........ ",
"          "
};
